<svg width="415" height="416" viewBox="0 0 415 416" fill="none" xmlns="http://www.w3.org/2000/svg">
<path d="M163.495 134.151L38.6056 256.994C38.6056 256.994 2.62925 230.267 0.0595171 206.623C-0.451306 201.923 2.31473 195.227 8.79667 187.092C22.6733 172.186 42.2038 153.682 42.2038 153.682L42.6223 153.268C90.7315 105.669 157.433 39.6751 157.843 38.0351C158.254 36.3903 174.289 63.7344 175.317 87.8919C175.317 87.8919 176.088 101.77 173.775 111.021C171.462 120.273 163.495 134.151 163.495 134.151Z" fill="#F5B005"/>
<path d="M281.19 163.508L158.356 38.6086C158.356 38.6086 185.081 2.62944 208.723 0.0595142C213.422 -0.451347 220.118 2.3149 228.253 8.79733C243.157 22.675 261.659 42.207 261.659 42.207L262.072 42.6238C309.668 90.7368 375.658 157.445 377.298 157.855C378.943 158.266 351.601 174.302 327.445 175.33C327.445 175.33 313.568 176.101 304.317 173.788C295.066 171.475 281.19 163.508 281.19 163.508Z" fill="#D63908"/>
<path d="M251.505 281.151L376.394 158.308C376.394 158.308 412.371 185.036 414.94 208.679C415.451 213.379 412.685 220.076 406.203 228.211C392.327 243.116 372.796 261.62 372.796 261.62L372.38 262.032C324.27 309.631 257.567 375.627 257.157 377.267C256.746 378.912 240.711 351.568 239.683 327.41C239.683 327.41 238.912 313.533 241.225 304.281C243.538 295.029 251.505 281.151 251.505 281.151Z" fill="#11A0CF"/>
<path d="M135.299 252.492L258.133 377.391C258.133 377.391 231.407 413.371 207.766 415.94C203.066 416.451 196.37 413.685 188.236 407.203C173.331 393.325 154.829 373.793 154.829 373.793L154.417 373.376C106.821 325.263 40.8303 258.555 39.1904 258.145C37.5457 257.734 64.8877 241.698 89.0434 240.67C89.0434 240.67 102.92 239.899 112.171 242.212C121.422 244.525 135.299 252.492 135.299 252.492Z" fill="#9AD03C"/>
</svg>
